inDegrees=yes
name=ik_lifting_orientations
DataType=double
version=3
OpenSimVersion=4.5-2024-01-10-34fd6af
endheader
time	pelvis_tilt	pelvis_list	pelvis_rotation	pelvis_tx	pelvis_ty	pelvis_tz	hip_flexion_r	hip_adduction_r	hip_rotation_r	knee_angle_r	knee_angle_r_beta	ankle_angle_r	subtalar_angle_r	mtp_angle_r	hip_flexion_l	hip_adduction_l	hip_rotation_l	knee_angle_l	knee_angle_l_beta	ankle_angle_l	subtalar_angle_l	mtp_angle_l	lumbar_extension	lumbar_bending	lumbar_rotation	arm_flex_r	arm_add_r	arm_rot_r	elbow_flex_r	pro_sup_r	wrist_flex_r	wrist_dev_r	arm_flex_l	arm_add_l	arm_rot_l	elbow_flex_l	pro_sup_l	wrist_flex_l	wrist_dev_l
0.5600000000000001	3.960687380760331	17.80006365049897	-97.35217818254468	0	0.9399999998679526	0	45.52926001483956	-10.63451317512464	0	60.54831107977591	1.056767384863853	-5.219089487871919	0	0	45.52926001483956	-10.63451317512464	0	60.54831107977591	1.056767384863853	-5.219089487871919	0	0	27.18706838541798	-42.18935023090325	74.41776070659387	38.30244555029594	23.8103451820939	-68.56531848503074	22.37348898497697	1.362477963139768	0	0	0	-10.81192771671328	0	88.68512937476652	1.362477963139768	0	0
0.57	4.94257866704384	17.52099585302312	-98.15287639332225	0	0.9399999998679526	0	45.527914016604	-10.6301735984843	0	60.54699428085149	1.056744402387035	-5.217238214824516	0	0	45.527914016604	-10.6301735984843	0	60.54699428085149	1.056744402387035	-5.217238214824516	0	0	27.84857600835071	-42.81418845490219	75.61931095040967	38.85781489850111	23.79192186414297	-68.66283247064632	23.47357716645958	1.359884253973207	0	0	0	-10.81815657113116	0	88.68763210303811	1.359884253973207	0	0
0.58	5.223643962618285	18.45427414295832	-97.89871607683992	0	0.9399999998679526	0	45.5275865629218	-10.62882197696488	0	60.54672647712285	1.056739728330221	-5.216632274112858	0	0	45.5275865629218	-10.62882197696488	0	60.54672647712285	1.056739728330221	-5.216632274112858	0	0	28.56256655526857	-43.09521568326991	75.25793070608326	38.8481086749725	23.79671847742268	-68.6291781808832	23.47789734572074	1.359295816854644	0	0	0	-10.81949232319486	0	88.68819989630016	1.359295816854644	0	0
0.59	5.248547035680379	18.42749372548633	-97.92491565554391	0	0.9399999998679526	0	45.52745000880066	-10.62825379831819	0	60.54661535601237	1.056737788900975	-5.216377059547957	0	0	45.52745000880066	-10.62825379831819	0	60.54661535601237	1.056737788900975	-5.216377059547957	0	0	28.58210898700066	-43.13074262454562	75.35362051663944	38.51915397352642	23.87717912833567	-68.46415895265581	25.0419261612516	1.359050917012168	0	0	0	-10.82004737224209	0	88.6884362044057	1.359050917012168	0	0
0.6	5.94992323495626	19.83920228611162	-97.96457947819987	0	0.9399999998679526	0	45.52694274078152	-10.6261815155031	0	60.54619827395025	1.05673050944574	-5.215450743450998	0	0	45.52694274078152	-10.6261815155031	0	60.54619827395025	1.05673050944574	-5.215450743450998	0	0	30.67541521185626	-43.92698596791527	74.75978363949031	38.4983572290572	24.9363921395572	-67.80242849336742	25.49769109593106	1.358137178511576	0	0	0	-10.82212542491202	0	88.68931788682072	1.358137178511576	0	0
0.61	5.949622863029853	19.8555323838875	-98.0162218873097	0	0.9399999998679526	0	45.52249132339625	-10.61349756223984	0	60.54161352904142	1.056650490551716	-5.210229195591479	0	0	45.52249132339625	-10.61349756223984	0	60.54161352904142	1.056650490551716	-5.210229195591479	0	0	29.33887725299816	-43.78496707500862	73.43748379560354	38.65082709736239	23.29813451710335	-66.83261815723154	25.34385164685402	1.349344469834408	0	0	0	-10.84362052225673	0	88.6978021835086	1.349344469834408	0	0
0.62	7.213217335443229	21.30138976003904	-99.74651002890317	0	0.9399999998679526	0	45.52183740974213	-10.61085156817414	0	60.54107820021554	1.056641147301124	-5.209051542742101	0	0	45.52183740974213	-10.61085156817414	0	60.54107820021554	1.056641147301124	-5.209051542742101	0	0	31.91747164625107	-43.60759988306634	76.23985646227834	38.43872886312125	22.20424955718661	-67.22440240265676	26.32537572801305	1.348165928806097	0	0	0	-10.84630075434264	0	88.69893937869686	1.348165928806097	0	0
0.63	7.12727562950316	22.63618582746698	-100.3954769876698	0	0.9399999998679526	0	45.52132203499846	-10.60874360795593	0	60.54065911197586	1.056633832831485	-5.208110937445411	0	0	45.52132203499846	-10.60874360795593	0	60.54065911197586	1.056633832831485	-5.208110937445411	0	0	34.16261206518005	-41.54641982860324	76.83004599406831	36.91809325685472	22.49737645838002	-66.92819748340979	26.77296607508049	1.347239498503302	0	0	0	-10.84840338932999	0	88.69983330760972	1.347239498503302	0	0
0.64	8.54714786333791	26.65705932653133	-101.347800190525	0	0.9399999998679526	0	45.51330825637896	-10.58699173832463	0	60.53241550740953	1.05648995478957	-5.199337068887208	0	0	45.51330825637896	-10.58699173832463	0	60.53241550740953	1.05648995478957	-5.199337068887208	0	0	38.97725729426335	-40.74069711003605	77.44794154930842	35.29973769454518	22.53071397260084	-66.21227972824846	29.77533951383058	1.331318891369535	0	0	0	-10.88745352698554	0	88.71519549044491	1.331318891369535	0	0
0.65	7.370119273536822	27.58404878193697	-99.9686215644673	0	0.9399999998679526	0	45.5125607403222	-10.58406099268842	0	60.53180091475652	1.056479228124217	-5.198045817703523	0	0	45.5125607403222	-10.58406099268842	0	60.53180091475652	1.056479228124217	-5.198045817703523	0	0	37.16637858355033	-40.19693829939985	74.26551725632652	34.85723217248438	21.84460004186796	-65.0637658382438	30.72404198026944	1.329963881504944	0	0	0	-10.89054755898151	0	88.71650296430307	1.329963881504944	0	0
